<svg xmlns="http://www.w3.org/2000/svg" width="16" height="16" viewBox="0 0 16 16" fill="none">
<g id="account_balance_24dp_5F6368_FILL0_wght400_GRAD0_opsz24 2">
<path id="Vector" d="M3.33398 10.6663V7.33301C3.33398 7.14412 3.39787 6.98579 3.52565 6.85801C3.65343 6.73023 3.81176 6.66634 4.00065 6.66634C4.18954 6.66634 4.34787 6.73023 4.47565 6.85801C4.60343 6.98579 4.66732 7.14412 4.66732 7.33301V10.6663C4.66732 10.8552 4.60343 11.0136 4.47565 11.1413C4.34787 11.2691 4.18954 11.333 4.00065 11.333C3.81176 11.333 3.65343 11.2691 3.52565 11.1413C3.39787 11.0136 3.33398 10.8552 3.33398 10.6663ZM7.33398 10.6663V7.33301C7.33398 7.14412 7.39787 6.98579 7.52565 6.85801C7.65343 6.73023 7.81176 6.66634 8.00065 6.66634C8.18954 6.66634 8.34787 6.73023 8.47565 6.85801C8.60343 6.98579 8.66732 7.14412 8.66732 7.33301V10.6663C8.66732 10.8552 8.60343 11.0136 8.47565 11.1413C8.34787 11.2691 8.18954 11.333 8.00065 11.333C7.81176 11.333 7.65343 11.2691 7.52565 11.1413C7.39787 11.0136 7.33398 10.8552 7.33398 10.6663ZM2.00065 13.9997C1.81176 13.9997 1.65343 13.9358 1.52565 13.808C1.39787 13.6802 1.33398 13.5219 1.33398 13.333C1.33398 13.1441 1.39787 12.9858 1.52565 12.858C1.65343 12.7302 1.81176 12.6663 2.00065 12.6663H14.0007C14.1895 12.6663 14.3479 12.7302 14.4756 12.858C14.6034 12.9858 14.6673 13.1441 14.6673 13.333C14.6673 13.5219 14.6034 13.6802 14.4756 13.808C14.3479 13.9358 14.1895 13.9997 14.0007 13.9997H2.00065ZM11.334 10.6663V7.33301C11.334 7.14412 11.3979 6.98579 11.5257 6.85801C11.6534 6.73023 11.8118 6.66634 12.0007 6.66634C12.1895 6.66634 12.3479 6.73023 12.4757 6.85801C12.6034 6.98579 12.6673 7.14412 12.6673 7.33301V10.6663C12.6673 10.8552 12.6034 11.0136 12.4757 11.1413C12.3479 11.2691 12.1895 11.333 12.0007 11.333C11.8118 11.333 11.6534 11.2691 11.5257 11.1413C11.3979 11.0136 11.334 10.8552 11.334 10.6663ZM14.0007 5.33301H1.93398C1.76732 5.33301 1.62565 5.27467 1.50898 5.15801C1.39232 5.04134 1.33398 4.89967 1.33398 4.73301V4.36634C1.33398 4.24412 1.36454 4.13856 1.42565 4.04967C1.48676 3.96079 1.56732 3.88856 1.66732 3.83301L7.40065 0.966341C7.58954 0.877452 7.78954 0.833008 8.00065 0.833008C8.21176 0.833008 8.41176 0.877452 8.60065 0.966341L14.3007 3.81634C14.4229 3.8719 14.5145 3.95523 14.5757 4.06634C14.6368 4.17745 14.6673 4.29412 14.6673 4.41634V4.66634C14.6673 4.85523 14.6034 5.01356 14.4756 5.14134C14.3479 5.26912 14.1895 5.33301 14.0007 5.33301ZM4.30065 3.99967H11.7007L8.00065 2.16634L4.30065 3.99967Z" fill="white"/>
</g>
</svg>