<svg xmlns="http://www.w3.org/2000/svg" width="6" height="4" viewBox="0 0 6 4" fill="none">
<path d="M0.919477 0.1774L3.0028 2.53446L5.08612 0.1774C5.13583 0.121157 5.19485 0.0765434 5.2598 0.0461051C5.32475 0.0156668 5.39436 5.92614e-10 5.46466 0C5.53496 -5.92611e-10 5.60458 0.0156668 5.66953 0.0461051C5.73448 0.0765434 5.79349 0.121157 5.8432 0.1774C5.89291 0.233642 5.93235 0.300412 5.95925 0.373897C5.98615 0.447381 6 0.526142 6 0.605681C6 0.68522 5.98615 0.76398 5.95925 0.837464C5.93235 0.910949 5.89291 0.977719 5.8432 1.03396L3.37866 3.82234C3.32898 3.87866 3.26998 3.92334 3.20502 3.95382C3.14007 3.98431 3.07044 4 3.00011 4C2.92979 4 2.86016 3.98431 2.79521 3.95382C2.73025 3.92334 2.67125 3.87866 2.62157 3.82234L0.157024 1.03396C0.107248 0.97776 0.0677577 0.911004 0.0408133 0.837514C0.013869 0.764024 0 0.685243 0 0.605681C0 0.526119 0.013869 0.447338 0.0408133 0.373848C0.0677577 0.300357 0.107248 0.233601 0.157024 0.1774C0.36643 -0.0534465 0.710071 -0.0595214 0.919477 0.1774Z" fill="#000"/>
</svg>