<svg xmlns="http://www.w3.org/2000/svg" width="15" height="15" viewBox="0 0 15 15" fill="none">
<circle cx="7.13695" cy="7.13695" r="5.88695" stroke="white" stroke-width="1.5"/>
<path d="M9.85187 11.5605L11.2233 10.3188L13.7166 13.0726C14.0595 13.4513 14.0305 14.0362 13.6518 14.3791C13.2731 14.722 12.6881 14.693 12.3452 14.3143L9.85187 11.5605Z" fill="white"/>
<path fill-rule="evenodd" clip-rule="evenodd" d="M7.22032 7.06498L6.53996 5.06157L5.87266 7.06498H7.22032ZM9.24128 9.06838H8.06182L7.5923 7.855H5.44514L5.00193 9.06838H3.85065L5.94285 3.72595H7.09034L9.24128 9.06838Z" fill="white"/>
<path fill-rule="evenodd" clip-rule="evenodd" d="M10.1143 7.75354L10.441 8.08778L8.77208 9.78772L8.00292 10.5645L6.72705 9.27094L7.05741 8.93965L8.00292 9.8956L10.1143 7.75354Z" fill="white"/>
<mask id="path-5-outside-1_608_83" maskUnits="userSpaceOnUse" x="5.72705" y="6.75354" width="5" height="4" fill="black">
<rect fill="white" x="5.72705" y="6.75354" width="5" height="4"/>
<path fill-rule="evenodd" clip-rule="evenodd" d="M10.1143 7.75354L10.441 8.08778L8.77208 9.78772L8.00292 10.5645L6.72705 9.27094L7.05741 8.93965L8.00292 9.8956L10.1143 7.75354Z"/>
</mask>
<path fill-rule="evenodd" clip-rule="evenodd" d="M10.1143 7.75354L10.441 8.08778L8.77208 9.78772L8.00292 10.5645L6.72705 9.27094L7.05741 8.93965L8.00292 9.8956L10.1143 7.75354Z" fill="white"/>
<path d="M10.1143 7.75354L10.1743 7.69488L10.1145 7.63375L10.0545 7.69463L10.1143 7.75354ZM10.441 8.08778L10.5009 8.14657L10.5585 8.08791L10.501 8.02912L10.441 8.08778ZM8.77208 9.78772L8.83171 9.84677L8.83196 9.84651L8.77208 9.78772ZM8.00292 10.5645L7.94317 10.6234L8.0028 10.6839L8.06255 10.6235L8.00292 10.5645ZM6.72705 9.27094L6.66763 9.21169L6.60886 9.27062L6.66731 9.32987L6.72705 9.27094ZM7.05741 8.93965L7.11707 8.88064L7.05765 8.82056L6.99799 8.8804L7.05741 8.93965ZM8.00292 9.8956L7.94326 9.95461L8.00302 10.015L8.06269 9.95451L8.00292 9.8956ZM10.0543 7.8122L10.381 8.14644L10.501 8.02912L10.1743 7.69488L10.0543 7.8122ZM10.3811 8.02899L8.7122 9.72893L8.83196 9.84651L10.5009 8.14657L10.3811 8.02899ZM8.71245 9.72867L7.94329 10.5054L8.06255 10.6235L8.83171 9.84677L8.71245 9.72867ZM8.06267 10.5055L6.7868 9.21201L6.66731 9.32987L7.94317 10.6234L8.06267 10.5055ZM6.78647 9.3302L7.11683 8.99891L6.99799 8.8804L6.66763 9.21169L6.78647 9.3302ZM6.99775 8.99866L7.94326 9.95461L8.06258 9.83658L7.11707 8.88064L6.99775 8.99866ZM8.06269 9.95451L10.174 7.81245L10.0545 7.69463L7.94315 9.83669L8.06269 9.95451Z" fill="white" mask="url(#path-5-outside-1_608_83)"/>
</svg>