<svg xmlns="http://www.w3.org/2000/svg" width="12" height="15" viewBox="0 0 12 15" fill="none">
<path id="Combined Shape" fill-rule="evenodd" clip-rule="evenodd" d="M0 3.10723C0 1.69855 1.14197 0.55658 2.55065 0.55658H9.294C10.7027 0.55658 11.8447 1.69855 11.8447 3.10723V11.5178C11.8447 12.9264 10.7027 14.0684 9.294 14.0684H2.55066C1.14197 14.0684 0 12.9264 0 11.5178V3.10723ZM2.55065 1.58812C1.71167 1.58812 1.03154 2.26825 1.03154 3.10723V11.5178C1.03154 12.3567 1.71167 13.0369 2.55066 13.0369H9.294C10.133 13.0369 10.8131 12.3567 10.8131 11.5178V3.10723C10.8131 2.26825 10.133 1.58812 9.294 1.58812H2.55065ZM7.34668 5.21751C7.34668 5.75672 6.98017 6.17829 6.23187 6.25181V6.69789H5.74828V6.25672C5.21378 6.2126 4.8269 6.01652 4.54693 5.74692L4.93889 5.21751C5.13233 5.40868 5.40722 5.57535 5.74828 5.63417V4.86457C5.22396 4.74202 4.65383 4.54594 4.65383 3.88418C4.65383 3.38419 5.06616 2.96262 5.74828 2.89889V2.44302H6.23187V2.9087C6.6442 2.94791 6.99035 3.10478 7.26524 3.34497L6.86309 3.85477C6.68492 3.69301 6.46094 3.59007 6.23187 3.53615V4.22242C6.76128 4.35477 7.34668 4.55085 7.34668 5.21751ZM5.39701 3.82537C5.39701 3.97733 5.5599 4.06066 5.79406 4.11949V3.49694C5.53445 3.52145 5.39701 3.6489 5.39701 3.82537ZM6.18606 5.64889C6.47622 5.60968 6.60857 5.45772 6.60857 5.29595C6.60857 5.11458 6.43041 5.03125 6.18606 4.96262V5.64889ZM2.45497 8.83375C2.45497 8.6726 2.58561 8.54197 2.74675 8.54197H8.95048C9.11162 8.54197 9.24226 8.6726 9.24226 8.83375C9.24226 8.9949 9.11162 9.12553 8.95048 9.12553H2.74675C2.58561 9.12553 2.45497 8.9949 2.45497 8.83375ZM2.74675 9.94251C2.58561 9.94251 2.45497 10.0731 2.45497 10.2343C2.45497 10.3954 2.58561 10.5261 2.74675 10.5261H8.95048C9.11162 10.5261 9.24226 10.3954 9.24226 10.2343C9.24226 10.0731 9.11162 9.94251 8.95048 9.94251H2.74675Z" fill="#F9F9F9"/>
</svg>