<svg xmlns="http://www.w3.org/2000/svg" width="13" height="15" viewBox="0 0 13 15" fill="none">
<path d="M12.8688 3.60181H12.8625C12.7728 3.44967 12.6459 3.3228 12.4938 3.23306L6.99379 0.126812C6.84364 0.0436373 6.67482 0 6.50317 0C6.33152 0 6.16269 0.0436373 6.01254 0.126812L0.512543 3.22056C0.357245 3.3083 0.22788 3.43551 0.137543 3.58931C0.137543 3.59013 0.137382 3.59095 0.137068 3.5917C0.136754 3.59246 0.136293 3.59315 0.135713 3.59373C0.135132 3.59431 0.134443 3.59477 0.133685 3.59509C0.132927 3.5954 0.132114 3.59556 0.131293 3.59556V3.60806C0.0437889 3.7555 -0.00160726 3.92412 4.34654e-05 4.09556V10.2581C0.000359471 10.4362 0.0479721 10.6111 0.138015 10.7648C0.228059 10.9186 0.357304 11.0456 0.512543 11.1331L6.01254 14.2268C6.15101 14.3023 6.30496 14.3451 6.46254 14.3518H6.55004C6.7055 14.3442 6.8572 14.3014 6.99379 14.2268L12.4938 11.1331C12.6474 11.0444 12.7751 10.9168 12.8639 10.7633C12.9528 10.6097 12.9997 10.4355 13 10.2581V4.09556C13.001 3.92224 12.9557 3.7518 12.8688 3.60181ZM6.50004 1.00181L11.4875 3.80181L9.56879 4.88931L4.53129 2.10806L6.50004 1.00181ZM6.55629 6.60181L1.52504 3.80181L3.50629 2.68931L8.55004 5.47056L6.55629 6.60181ZM1.00004 4.65181L6.05629 7.47056L6.00629 13.0768L1.00004 10.2581V4.65181ZM7.00629 13.0706L7.05629 7.47056L9.06254 6.32681V8.70806C9.06254 8.84067 9.11522 8.96785 9.20899 9.06162C9.30276 9.15538 9.42994 9.20806 9.56254 9.20806C9.69515 9.20806 9.82233 9.15538 9.9161 9.06162C10.0099 8.96785 10.0625 8.84067 10.0625 8.70806V5.75806L12 4.65806V10.2581L7.00629 13.0706Z" fill="white"/>
</svg>