<svg xmlns="http://www.w3.org/2000/svg" width="12" height="12" viewBox="0 0 12 12" fill="none">
<path fill-rule="evenodd" clip-rule="evenodd" d="M1.01389 0.47928C1.31752 0.172402 1.72933 0 2.15873 0H5.39683C5.82622 0 6.23803 0.172402 6.54167 0.47928C6.84529 0.786157 7.01587 1.20237 7.01587 1.63636V6H7.55556C7.98495 6 8.39676 6.1724 8.70039 6.47928C9.00402 6.78616 9.1746 7.20237 9.1746 7.63636V8.72727C9.1746 8.87194 9.23146 9.01068 9.33267 9.11297C9.43388 9.21526 9.57115 9.27273 9.71429 9.27273C9.85742 9.27273 9.99469 9.21526 10.0959 9.11297C10.1971 9.01068 10.254 8.87194 10.254 8.72727V4.81636C10.254 4.74439 10.24 4.67268 10.2127 4.60621C10.1853 4.53975 10.1453 4.4794 10.0948 4.42866L10.0936 4.42751L8.25331 2.56751C8.04255 2.3545 8.04255 2.00914 8.25331 1.79612C8.46407 1.58311 8.80578 1.58311 9.01653 1.79612L10.8557 3.65498C10.8559 3.6552 10.8562 3.65543 10.8564 3.65565C11.0076 3.80774 11.1276 3.98853 11.2094 4.18764C11.2914 4.38704 11.3335 4.60087 11.3333 4.8168V8.72727C11.3333 9.16126 11.1628 9.57748 10.8591 9.88436C10.5555 10.1912 10.1437 10.3636 9.71429 10.3636C9.28489 10.3636 8.87308 10.1912 8.56945 9.88436C8.26582 9.57748 8.09524 9.16126 8.09524 8.72727V7.63636C8.09524 7.4917 8.03838 7.35296 7.93717 7.25067C7.83596 7.14838 7.69869 7.09091 7.55556 7.09091H7.01587V10.9091C7.31393 10.9091 7.55556 11.1533 7.55556 11.4545C7.55556 11.7558 7.31393 12 7.01587 12H0.539683C0.241624 12 0 11.7558 0 11.4545C0 11.1533 0.241624 10.9091 0.539683 10.9091V1.63636C0.539683 1.20237 0.71026 0.786158 1.01389 0.47928ZM1.61905 4.90909V10.9091H5.93651V4.90909H1.61905ZM5.93651 3.81818H1.61905V1.63636C1.61905 1.4917 1.67591 1.35296 1.77712 1.25067C1.87833 1.14838 2.0156 1.09091 2.15873 1.09091H5.39683C5.53996 1.09091 5.67723 1.14838 5.77844 1.25067C5.87965 1.35296 5.93651 1.4917 5.93651 1.63636V3.81818Z" fill="white"/>
</svg>