<svg xmlns="http://www.w3.org/2000/svg" width="101" height="21" viewBox="0 0 101 21" fill="none">
<path id="Shape" fill-rule="evenodd" clip-rule="evenodd" d="M91.019 0C96.7994 0 100.623 4.36202 100.623 10.0327C100.623 15.7033 96.7994 20.0653 91.019 20.0653C85.1942 20.0653 81.4147 15.7033 81.4147 10.0327C81.4147 4.36202 85.2386 0 91.019 0ZM42.0635 15.7905C39.3512 15.7905 37.1724 14.6128 35.7495 13.2169L33.0817 17.0119C35.0381 18.8876 37.8394 20.1089 41.8412 20.1089C47.1325 20.1089 50.0671 17.4917 50.0671 13.6095C50.0671 9.24749 45.5317 8.28784 42.2858 7.63354C40.0626 7.19734 38.8621 6.84838 38.8621 5.84511C38.8621 4.97271 39.529 4.3184 41.2187 4.3184C42.9528 4.3184 45.1316 4.97271 46.7768 6.32493L49.578 2.74807C47.4437 0.959645 44.6869 0.0436202 41.5299 0.0436202C36.461 0.0436202 33.6597 2.83531 33.6597 6.10683C33.6597 10.6016 37.9876 11.469 41.2109 12.1149L41.4855 12.17C43.5753 12.6062 44.8648 13.0424 44.8648 14.133C44.8648 15.049 43.7976 15.7905 42.0635 15.7905ZM5.06896 13.1297H7.69237L11.0272 19.6727H16.8965L12.8503 12.5626C14.7178 11.9519 16.8076 10.1199 16.8076 6.76113C16.8076 3.14066 14.3176 0.305342 9.9156 0.305342H0V19.7163H5.06896V13.1297ZM5.06896 4.5365H9.11524C10.4492 4.5365 11.6053 5.36529 11.5608 6.71751C11.5608 8.06974 10.4492 8.89853 9.11524 8.89853H5.06896V4.5365ZM22.5436 4.66736H16.9855V0.305342H33.1706V4.66736H27.657V19.7163H22.5436V4.66736ZM52.6016 0.305342H60.0272C63.8067 0.305342 65.9855 2.92256 65.9855 5.97597C65.9855 9.02939 63.8067 11.6466 60.0272 11.6466H54.2913V19.7163H52.6016V0.305342ZM54.2913 1.83205H59.8493C62.4728 1.83205 64.2069 3.53324 64.2069 6.01959C64.2069 8.46232 62.4728 10.1635 59.8493 10.1635H54.2913V1.83205ZM73.411 11.6902H69.0535V19.7163H67.3639V0.305342H74.745C78.1688 0.305342 80.7477 2.44273 80.7477 5.97597C80.7477 9.50921 78.2132 11.4285 75.2786 11.5594L81.0145 19.7163H78.9691L73.411 11.6902ZM69.0535 1.83205H74.6116C77.235 1.83205 79.0136 3.53324 79.0136 5.97597C79.0136 8.4187 77.235 10.1635 74.6116 10.1635H69.0535V1.83205ZM83.1933 10.0327C83.1933 5.10357 86.2168 1.52671 91.019 1.52671C95.7767 1.52671 98.8448 5.10357 98.8448 10.0327C98.8448 14.9181 95.7767 18.5386 91.019 18.5386C86.2168 18.5386 83.1933 14.9181 83.1933 10.0327Z" fill="white"/>
</svg>