<svg xmlns="http://www.w3.org/2000/svg" width="17" height="14" viewBox="0 0 17 14" fill="none">
<g id="Group 45424150">
<path id="Subtract" fill-rule="evenodd" clip-rule="evenodd" d="M2.06376 0C1.18246 0 0.468018 0.714441 0.468018 1.59575V10.3841V10.916H0.999932H1.54533C1.58809 10.5234 1.7312 10.1603 1.9489 9.85222H1.53185V1.59575C1.53185 1.30198 1.76999 1.06383 2.06376 1.06383H11.1347V2.98303L10.6667 2.98303V3.51495V8.69759C10.9342 8.5907 11.2262 8.53192 11.5319 8.53192C11.7635 8.53192 11.9873 8.56567 12.1985 8.62853V7.52589H15V9.99901C15 10.2928 14.7618 10.5309 14.4681 10.5309H13.8414C13.8571 10.6401 13.8652 10.7517 13.8652 10.8652C13.8652 11.12 13.8244 11.3652 13.7489 11.5948H14.4681C15.3494 11.5948 16.0638 10.8803 16.0638 9.99901V6.78508C16.0638 6.51343 15.9945 6.24627 15.8623 6.00892L14.6342 3.80262C14.3525 3.2967 13.8189 2.98303 13.2399 2.98303H12.1985V0.531915V0H11.6666H2.06376ZM9.19909 10.916C9.19873 10.8992 9.19855 10.8822 9.19855 10.8652C9.19855 10.5022 9.28144 10.1586 9.42933 9.85222H5.78157C5.99927 10.1603 6.14238 10.5234 6.18514 10.916H9.19909ZM14.897 6.46206H12.1985V4.04686H13.2399C13.4329 4.04686 13.6108 4.15142 13.7046 4.32006L14.897 6.46206Z" fill="white"/>
<circle id="Ellipse 118" cx="3.86525" cy="10.8653" r="1.80142" fill="#0091EA" stroke="white" stroke-width="1.06383"/>
<circle id="Ellipse 119" cx="11.5319" cy="10.8653" r="1.80142" fill="#0091EA" stroke="white" stroke-width="1.06383"/>
</g>
</svg>